G04 #@! TF.GenerationSoftware,KiCad,Pcbnew,(5.1.4-0)*
G04 #@! TF.CreationDate,2021-05-12T17:49:12+10:00*
G04 #@! TF.ProjectId,ble,626c652e-6b69-4636-9164-5f7063625858,rev?*
G04 #@! TF.SameCoordinates,Original*
G04 #@! TF.FileFunction,Legend,Bot*
G04 #@! TF.FilePolarity,Positive*
%FSLAX46Y46*%
G04 Gerber Fmt 4.6, Leading zero omitted, Abs format (unit mm)*
G04 Created by KiCad (PCBNEW (5.1.4-0)) date 2021-05-12 17:49:12*
%MOMM*%
%LPD*%
G04 APERTURE LIST*
%ADD10C,0.200000*%
%ADD11C,0.300000*%
%ADD12C,0.150000*%
%ADD13C,0.500000*%
%ADD14C,0.120000*%
%ADD15C,0.010000*%
G04 APERTURE END LIST*
D10*
X17819047Y-63352380D02*
X17819047Y-64066666D01*
X17866666Y-64209523D01*
X17961904Y-64304761D01*
X18104761Y-64352380D01*
X18200000Y-64352380D01*
X16866666Y-64352380D02*
X17342857Y-64352380D01*
X17342857Y-63352380D01*
X15961904Y-64257142D02*
X16009523Y-64304761D01*
X16152380Y-64352380D01*
X16247619Y-64352380D01*
X16390476Y-64304761D01*
X16485714Y-64209523D01*
X16533333Y-64114285D01*
X16580952Y-63923809D01*
X16580952Y-63780952D01*
X16533333Y-63590476D01*
X16485714Y-63495238D01*
X16390476Y-63400000D01*
X16247619Y-63352380D01*
X16152380Y-63352380D01*
X16009523Y-63400000D01*
X15961904Y-63447619D01*
X15247619Y-63352380D02*
X15247619Y-64066666D01*
X15295238Y-64209523D01*
X15390476Y-64304761D01*
X15533333Y-64352380D01*
X15628571Y-64352380D01*
X14295238Y-64352380D02*
X14771428Y-64352380D01*
X14771428Y-63352380D01*
X13390476Y-64257142D02*
X13438095Y-64304761D01*
X13580952Y-64352380D01*
X13676190Y-64352380D01*
X13819047Y-64304761D01*
X13914285Y-64209523D01*
X13961904Y-64114285D01*
X14009523Y-63923809D01*
X14009523Y-63780952D01*
X13961904Y-63590476D01*
X13914285Y-63495238D01*
X13819047Y-63400000D01*
X13676190Y-63352380D01*
X13580952Y-63352380D01*
X13438095Y-63400000D01*
X13390476Y-63447619D01*
X12676190Y-63352380D02*
X12676190Y-64066666D01*
X12723809Y-64209523D01*
X12819047Y-64304761D01*
X12961904Y-64352380D01*
X13057142Y-64352380D01*
X11723809Y-64352380D02*
X12200000Y-64352380D01*
X12200000Y-63352380D01*
X10819047Y-64257142D02*
X10866666Y-64304761D01*
X11009523Y-64352380D01*
X11104761Y-64352380D01*
X11247619Y-64304761D01*
X11342857Y-64209523D01*
X11390476Y-64114285D01*
X11438095Y-63923809D01*
X11438095Y-63780952D01*
X11390476Y-63590476D01*
X11342857Y-63495238D01*
X11247619Y-63400000D01*
X11104761Y-63352380D01*
X11009523Y-63352380D01*
X10866666Y-63400000D01*
X10819047Y-63447619D01*
X10104761Y-63352380D02*
X10104761Y-64066666D01*
X10152380Y-64209523D01*
X10247619Y-64304761D01*
X10390476Y-64352380D01*
X10485714Y-64352380D01*
X9152380Y-64352380D02*
X9628571Y-64352380D01*
X9628571Y-63352380D01*
X8247619Y-64257142D02*
X8295238Y-64304761D01*
X8438095Y-64352380D01*
X8533333Y-64352380D01*
X8676190Y-64304761D01*
X8771428Y-64209523D01*
X8819047Y-64114285D01*
X8866666Y-63923809D01*
X8866666Y-63780952D01*
X8819047Y-63590476D01*
X8771428Y-63495238D01*
X8676190Y-63400000D01*
X8533333Y-63352380D01*
X8438095Y-63352380D01*
X8295238Y-63400000D01*
X8247619Y-63447619D01*
X16509523Y-62285714D02*
X16128571Y-62285714D01*
X16366666Y-61952380D02*
X16366666Y-62809523D01*
X16319047Y-62904761D01*
X16223809Y-62952380D01*
X16128571Y-62952380D01*
X15795238Y-62952380D02*
X15795238Y-61952380D01*
X15366666Y-62952380D02*
X15366666Y-62428571D01*
X15414285Y-62333333D01*
X15509523Y-62285714D01*
X15652380Y-62285714D01*
X15747619Y-62333333D01*
X15795238Y-62380952D01*
X14985714Y-62952380D02*
X14461904Y-62285714D01*
X14985714Y-62285714D02*
X14461904Y-62952380D01*
X13461904Y-62285714D02*
X13080952Y-62285714D01*
X13319047Y-61952380D02*
X13319047Y-62809523D01*
X13271428Y-62904761D01*
X13176190Y-62952380D01*
X13080952Y-62952380D01*
X12604761Y-62952380D02*
X12700000Y-62904761D01*
X12747619Y-62857142D01*
X12795238Y-62761904D01*
X12795238Y-62476190D01*
X12747619Y-62380952D01*
X12700000Y-62333333D01*
X12604761Y-62285714D01*
X12461904Y-62285714D01*
X12366666Y-62333333D01*
X12319047Y-62380952D01*
X12271428Y-62476190D01*
X12271428Y-62761904D01*
X12319047Y-62857142D01*
X12366666Y-62904761D01*
X12461904Y-62952380D01*
X12604761Y-62952380D01*
X11223809Y-61952380D02*
X10652380Y-61952380D01*
X10938095Y-62952380D02*
X10938095Y-61952380D01*
X10033333Y-61952380D02*
X10033333Y-62666666D01*
X10080952Y-62809523D01*
X10176190Y-62904761D01*
X10319047Y-62952380D01*
X10414285Y-62952380D01*
X16223809Y-61552380D02*
X16223809Y-60552380D01*
X16223809Y-61504761D02*
X16319047Y-61552380D01*
X16509523Y-61552380D01*
X16604761Y-61504761D01*
X16652380Y-61457142D01*
X16700000Y-61361904D01*
X16700000Y-61076190D01*
X16652380Y-60980952D01*
X16604761Y-60933333D01*
X16509523Y-60885714D01*
X16319047Y-60885714D01*
X16223809Y-60933333D01*
X15366666Y-61504761D02*
X15461904Y-61552380D01*
X15652380Y-61552380D01*
X15747619Y-61504761D01*
X15795238Y-61409523D01*
X15795238Y-61028571D01*
X15747619Y-60933333D01*
X15652380Y-60885714D01*
X15461904Y-60885714D01*
X15366666Y-60933333D01*
X15319047Y-61028571D01*
X15319047Y-61123809D01*
X15795238Y-61219047D01*
X14985714Y-60885714D02*
X14461904Y-60885714D01*
X14985714Y-61552380D01*
X14461904Y-61552380D01*
X13938095Y-61552380D02*
X14033333Y-61504761D01*
X14080952Y-61409523D01*
X14080952Y-60552380D01*
X13557142Y-61552380D02*
X13557142Y-60885714D01*
X13557142Y-60552380D02*
X13604761Y-60600000D01*
X13557142Y-60647619D01*
X13509523Y-60600000D01*
X13557142Y-60552380D01*
X13557142Y-60647619D01*
X13128571Y-60647619D02*
X13080952Y-60600000D01*
X12985714Y-60552380D01*
X12747619Y-60552380D01*
X12652380Y-60600000D01*
X12604761Y-60647619D01*
X12557142Y-60742857D01*
X12557142Y-60838095D01*
X12604761Y-60980952D01*
X13176190Y-61552380D01*
X12557142Y-61552380D01*
X11938095Y-60552380D02*
X11842857Y-60552380D01*
X11747619Y-60600000D01*
X11700000Y-60647619D01*
X11652380Y-60742857D01*
X11604761Y-60933333D01*
X11604761Y-61171428D01*
X11652380Y-61361904D01*
X11700000Y-61457142D01*
X11747619Y-61504761D01*
X11842857Y-61552380D01*
X11938095Y-61552380D01*
X12033333Y-61504761D01*
X12080952Y-61457142D01*
X12128571Y-61361904D01*
X12176190Y-61171428D01*
X12176190Y-60933333D01*
X12128571Y-60742857D01*
X12080952Y-60647619D01*
X12033333Y-60600000D01*
X11938095Y-60552380D01*
X11223809Y-60647619D02*
X11176190Y-60600000D01*
X11080952Y-60552380D01*
X10842857Y-60552380D01*
X10747619Y-60600000D01*
X10700000Y-60647619D01*
X10652380Y-60742857D01*
X10652380Y-60838095D01*
X10700000Y-60980952D01*
X11271428Y-61552380D01*
X10652380Y-61552380D01*
X9700000Y-61552380D02*
X10271428Y-61552380D01*
X9985714Y-61552380D02*
X9985714Y-60552380D01*
X10080952Y-60695238D01*
X10176190Y-60790476D01*
X10271428Y-60838095D01*
D11*
X126575000Y7965178D02*
X126289285Y7965178D01*
X126146428Y7893750D01*
X126003571Y7750892D01*
X125932142Y7465178D01*
X125932142Y6965178D01*
X126003571Y6679464D01*
X126146428Y6536607D01*
X126289285Y6465178D01*
X126575000Y6465178D01*
X126717857Y6536607D01*
X126860714Y6679464D01*
X126932142Y6965178D01*
X126932142Y7465178D01*
X126860714Y7750892D01*
X126717857Y7893750D01*
X126575000Y7965178D01*
X125289285Y6465178D02*
X125289285Y7965178D01*
X124646428Y6465178D02*
X124646428Y7250892D01*
X124717857Y7393750D01*
X124860714Y7465178D01*
X125075000Y7465178D01*
X125217857Y7393750D01*
X125289285Y7322321D01*
X122789285Y7465178D02*
X122789285Y6465178D01*
X122789285Y7322321D02*
X122717857Y7393750D01*
X122575000Y7465178D01*
X122360714Y7465178D01*
X122217857Y7393750D01*
X122146428Y7250892D01*
X122146428Y6465178D01*
X121217857Y6465178D02*
X121360714Y6536607D01*
X121432142Y6608035D01*
X121503571Y6750892D01*
X121503571Y7179464D01*
X121432142Y7322321D01*
X121360714Y7393750D01*
X121217857Y7465178D01*
X121003571Y7465178D01*
X120860714Y7393750D01*
X120789285Y7322321D01*
X120717857Y7179464D01*
X120717857Y6750892D01*
X120789285Y6608035D01*
X120860714Y6536607D01*
X121003571Y6465178D01*
X121217857Y6465178D01*
D12*
X141930428Y-19597619D02*
X141882809Y-19454761D01*
X141835190Y-19407142D01*
X141739952Y-19359523D01*
X141597095Y-19359523D01*
X141501857Y-19407142D01*
X141454238Y-19454761D01*
X141406619Y-19550000D01*
X141406619Y-19930952D01*
X142406619Y-19930952D01*
X142406619Y-19597619D01*
X142359000Y-19502380D01*
X142311380Y-19454761D01*
X142216142Y-19407142D01*
X142120904Y-19407142D01*
X142025666Y-19454761D01*
X141978047Y-19502380D01*
X141930428Y-19597619D01*
X141930428Y-19930952D01*
X141787571Y-18930952D02*
X141787571Y-18169047D01*
X143930428Y-19597619D02*
X143882809Y-19454761D01*
X143835190Y-19407142D01*
X143739952Y-19359523D01*
X143597095Y-19359523D01*
X143501857Y-19407142D01*
X143454238Y-19454761D01*
X143406619Y-19550000D01*
X143406619Y-19930952D01*
X144406619Y-19930952D01*
X144406619Y-19597619D01*
X144359000Y-19502380D01*
X144311380Y-19454761D01*
X144216142Y-19407142D01*
X144120904Y-19407142D01*
X144025666Y-19454761D01*
X143978047Y-19502380D01*
X143930428Y-19597619D01*
X143930428Y-19930952D01*
X143787571Y-18930952D02*
X143787571Y-18169047D01*
X143406619Y-18550000D02*
X144168523Y-18550000D01*
D13*
X159620238Y-13357142D02*
X159334523Y-13452380D01*
X159239285Y-13547619D01*
X159144047Y-13738095D01*
X159144047Y-14023809D01*
X159239285Y-14214285D01*
X159334523Y-14309523D01*
X159525000Y-14404761D01*
X160286904Y-14404761D01*
X160286904Y-12404761D01*
X159620238Y-12404761D01*
X159429761Y-12500000D01*
X159334523Y-12595238D01*
X159239285Y-12785714D01*
X159239285Y-12976190D01*
X159334523Y-13166666D01*
X159429761Y-13261904D01*
X159620238Y-13357142D01*
X160286904Y-13357142D01*
X158286904Y-13642857D02*
X156763095Y-13642857D01*
X157525000Y-14404761D02*
X157525000Y-12880952D01*
X166620238Y-13357142D02*
X166334523Y-13452380D01*
X166239285Y-13547619D01*
X166144047Y-13738095D01*
X166144047Y-14023809D01*
X166239285Y-14214285D01*
X166334523Y-14309523D01*
X166525000Y-14404761D01*
X167286904Y-14404761D01*
X167286904Y-12404761D01*
X166620238Y-12404761D01*
X166429761Y-12500000D01*
X166334523Y-12595238D01*
X166239285Y-12785714D01*
X166239285Y-12976190D01*
X166334523Y-13166666D01*
X166429761Y-13261904D01*
X166620238Y-13357142D01*
X167286904Y-13357142D01*
X165286904Y-13642857D02*
X163763095Y-13642857D01*
D14*
X137250000Y-40750000D02*
X134750000Y-40750000D01*
X138750000Y-42500000D02*
X138750000Y-44500000D01*
X137250000Y-46250000D02*
X134750000Y-46250000D01*
X133250000Y-42500000D02*
X133250000Y-44500000D01*
X137700000Y-41200000D02*
X137250000Y-40750000D01*
X134300000Y-41200000D02*
X134750000Y-40750000D01*
X134300000Y-45800000D02*
X134750000Y-46250000D01*
X137700000Y-45800000D02*
X137250000Y-46250000D01*
D15*
G36*
X77418062Y-16527269D02*
G01*
X74252666Y-16552333D01*
X73775934Y-16786536D01*
X73246806Y-17121757D01*
X72756904Y-17570889D01*
X72357883Y-18082495D01*
X72207088Y-18348718D01*
X72101584Y-18576803D01*
X72032355Y-18777847D01*
X71991853Y-18997783D01*
X71972531Y-19282541D01*
X71966844Y-19678053D01*
X71966666Y-19812000D01*
X71969675Y-20243206D01*
X71983671Y-20549536D01*
X72016110Y-20775408D01*
X72074445Y-20965242D01*
X72166132Y-21163457D01*
X72206533Y-21241231D01*
X72586194Y-21803312D01*
X73083574Y-22301958D01*
X73648561Y-22688433D01*
X73746513Y-22738878D01*
X74252666Y-22987000D01*
X77430558Y-23011909D01*
X80608450Y-23036819D01*
X80796058Y-22837119D01*
X80846458Y-22779987D01*
X80886911Y-22715288D01*
X80918513Y-22625083D01*
X80942355Y-22491432D01*
X80959531Y-22296395D01*
X80971133Y-22022033D01*
X80976166Y-21759333D01*
X79713666Y-21759333D01*
X77321833Y-21758861D01*
X76632558Y-21755580D01*
X76008846Y-21746487D01*
X75472231Y-21732282D01*
X75044248Y-21713666D01*
X74746430Y-21691339D01*
X74614638Y-21670805D01*
X74220437Y-21495152D01*
X73834860Y-21212108D01*
X73521799Y-20873258D01*
X73413456Y-20701000D01*
X73300753Y-20413590D01*
X73246390Y-20067991D01*
X73236666Y-19762988D01*
X73247216Y-19413766D01*
X73291036Y-19160987D01*
X73386379Y-18932432D01*
X73492905Y-18749226D01*
X73819596Y-18349489D01*
X74163368Y-18078571D01*
X74577593Y-17822333D01*
X77145630Y-17796589D01*
X79713666Y-17770845D01*
X79713666Y-21759333D01*
X80976166Y-21759333D01*
X80978254Y-21650406D01*
X80981989Y-21163574D01*
X80983428Y-20543597D01*
X80983666Y-19772537D01*
X80983666Y-16878183D01*
X80783562Y-16690195D01*
X80583457Y-16502206D01*
X77418062Y-16527269D01*
X77418062Y-16527269D01*
G37*
X77418062Y-16527269D02*
X74252666Y-16552333D01*
X73775934Y-16786536D01*
X73246806Y-17121757D01*
X72756904Y-17570889D01*
X72357883Y-18082495D01*
X72207088Y-18348718D01*
X72101584Y-18576803D01*
X72032355Y-18777847D01*
X71991853Y-18997783D01*
X71972531Y-19282541D01*
X71966844Y-19678053D01*
X71966666Y-19812000D01*
X71969675Y-20243206D01*
X71983671Y-20549536D01*
X72016110Y-20775408D01*
X72074445Y-20965242D01*
X72166132Y-21163457D01*
X72206533Y-21241231D01*
X72586194Y-21803312D01*
X73083574Y-22301958D01*
X73648561Y-22688433D01*
X73746513Y-22738878D01*
X74252666Y-22987000D01*
X77430558Y-23011909D01*
X80608450Y-23036819D01*
X80796058Y-22837119D01*
X80846458Y-22779987D01*
X80886911Y-22715288D01*
X80918513Y-22625083D01*
X80942355Y-22491432D01*
X80959531Y-22296395D01*
X80971133Y-22022033D01*
X80976166Y-21759333D01*
X79713666Y-21759333D01*
X77321833Y-21758861D01*
X76632558Y-21755580D01*
X76008846Y-21746487D01*
X75472231Y-21732282D01*
X75044248Y-21713666D01*
X74746430Y-21691339D01*
X74614638Y-21670805D01*
X74220437Y-21495152D01*
X73834860Y-21212108D01*
X73521799Y-20873258D01*
X73413456Y-20701000D01*
X73300753Y-20413590D01*
X73246390Y-20067991D01*
X73236666Y-19762988D01*
X73247216Y-19413766D01*
X73291036Y-19160987D01*
X73386379Y-18932432D01*
X73492905Y-18749226D01*
X73819596Y-18349489D01*
X74163368Y-18078571D01*
X74577593Y-17822333D01*
X77145630Y-17796589D01*
X79713666Y-17770845D01*
X79713666Y-21759333D01*
X80976166Y-21759333D01*
X80978254Y-21650406D01*
X80981989Y-21163574D01*
X80983428Y-20543597D01*
X80983666Y-19772537D01*
X80983666Y-16878183D01*
X80783562Y-16690195D01*
X80583457Y-16502206D01*
X77418062Y-16527269D01*
G36*
X76451466Y-25400581D02*
G01*
X75752043Y-25402829D01*
X75185640Y-25407502D01*
X74734100Y-25415356D01*
X74379268Y-25427149D01*
X74102989Y-25443637D01*
X73887107Y-25465580D01*
X73713467Y-25493732D01*
X73563912Y-25528852D01*
X73456034Y-25560406D01*
X72722794Y-25873295D01*
X72087314Y-26323772D01*
X71553150Y-26908714D01*
X71138187Y-27595471D01*
X71022239Y-27841342D01*
X70944948Y-28045577D01*
X70898499Y-28253362D01*
X70875080Y-28509883D01*
X70866876Y-28860327D01*
X70866000Y-29169446D01*
X70868275Y-29606869D01*
X70880425Y-29920282D01*
X70910434Y-30154997D01*
X70966289Y-30356326D01*
X71055976Y-30569582D01*
X71145385Y-30754740D01*
X71582141Y-31467052D01*
X72126790Y-32048966D01*
X72779077Y-32500222D01*
X72922328Y-32574722D01*
X73566085Y-32893000D01*
X77086815Y-32918391D01*
X80607544Y-32943783D01*
X80795605Y-32743601D01*
X80842792Y-32690645D01*
X80881342Y-32631064D01*
X80912127Y-32548379D01*
X80936021Y-32426115D01*
X80953896Y-32247793D01*
X80966627Y-31996937D01*
X80974628Y-31675451D01*
X79713666Y-31675451D01*
X76813833Y-31649225D01*
X76016274Y-31641073D01*
X75369920Y-31631887D01*
X74856639Y-31620720D01*
X74458304Y-31606624D01*
X74156784Y-31588650D01*
X73933949Y-31565852D01*
X73771672Y-31537282D01*
X73651821Y-31501991D01*
X73601613Y-31481289D01*
X73215288Y-31244106D01*
X72830196Y-30903888D01*
X72504062Y-30517232D01*
X72338864Y-30243304D01*
X72199073Y-29818178D01*
X72136180Y-29319312D01*
X72150424Y-28809311D01*
X72242040Y-28350779D01*
X72330846Y-28132854D01*
X72694819Y-27583177D01*
X73148677Y-27166358D01*
X73517624Y-26948560D01*
X73998666Y-26712333D01*
X79713666Y-26661631D01*
X79713666Y-31675451D01*
X80974628Y-31675451D01*
X80975086Y-31657069D01*
X80980146Y-31211713D01*
X80982681Y-30644392D01*
X80983563Y-29938627D01*
X80983666Y-29194794D01*
X80983406Y-28353230D01*
X80982079Y-27664391D01*
X80978870Y-27111668D01*
X80972964Y-26678453D01*
X80963543Y-26348137D01*
X80949793Y-26104112D01*
X80930898Y-25929769D01*
X80906040Y-25808501D01*
X80874405Y-25723698D01*
X80835176Y-25658752D01*
X80808188Y-25623084D01*
X80632710Y-25400000D01*
X77302065Y-25400000D01*
X76451466Y-25400581D01*
X76451466Y-25400581D01*
G37*
X76451466Y-25400581D02*
X75752043Y-25402829D01*
X75185640Y-25407502D01*
X74734100Y-25415356D01*
X74379268Y-25427149D01*
X74102989Y-25443637D01*
X73887107Y-25465580D01*
X73713467Y-25493732D01*
X73563912Y-25528852D01*
X73456034Y-25560406D01*
X72722794Y-25873295D01*
X72087314Y-26323772D01*
X71553150Y-26908714D01*
X71138187Y-27595471D01*
X71022239Y-27841342D01*
X70944948Y-28045577D01*
X70898499Y-28253362D01*
X70875080Y-28509883D01*
X70866876Y-28860327D01*
X70866000Y-29169446D01*
X70868275Y-29606869D01*
X70880425Y-29920282D01*
X70910434Y-30154997D01*
X70966289Y-30356326D01*
X71055976Y-30569582D01*
X71145385Y-30754740D01*
X71582141Y-31467052D01*
X72126790Y-32048966D01*
X72779077Y-32500222D01*
X72922328Y-32574722D01*
X73566085Y-32893000D01*
X77086815Y-32918391D01*
X80607544Y-32943783D01*
X80795605Y-32743601D01*
X80842792Y-32690645D01*
X80881342Y-32631064D01*
X80912127Y-32548379D01*
X80936021Y-32426115D01*
X80953896Y-32247793D01*
X80966627Y-31996937D01*
X80974628Y-31675451D01*
X79713666Y-31675451D01*
X76813833Y-31649225D01*
X76016274Y-31641073D01*
X75369920Y-31631887D01*
X74856639Y-31620720D01*
X74458304Y-31606624D01*
X74156784Y-31588650D01*
X73933949Y-31565852D01*
X73771672Y-31537282D01*
X73651821Y-31501991D01*
X73601613Y-31481289D01*
X73215288Y-31244106D01*
X72830196Y-30903888D01*
X72504062Y-30517232D01*
X72338864Y-30243304D01*
X72199073Y-29818178D01*
X72136180Y-29319312D01*
X72150424Y-28809311D01*
X72242040Y-28350779D01*
X72330846Y-28132854D01*
X72694819Y-27583177D01*
X73148677Y-27166358D01*
X73517624Y-26948560D01*
X73998666Y-26712333D01*
X79713666Y-26661631D01*
X79713666Y-31675451D01*
X80974628Y-31675451D01*
X80975086Y-31657069D01*
X80980146Y-31211713D01*
X80982681Y-30644392D01*
X80983563Y-29938627D01*
X80983666Y-29194794D01*
X80983406Y-28353230D01*
X80982079Y-27664391D01*
X80978870Y-27111668D01*
X80972964Y-26678453D01*
X80963543Y-26348137D01*
X80949793Y-26104112D01*
X80930898Y-25929769D01*
X80906040Y-25808501D01*
X80874405Y-25723698D01*
X80835176Y-25658752D01*
X80808188Y-25623084D01*
X80632710Y-25400000D01*
X77302065Y-25400000D01*
X76451466Y-25400581D01*
G36*
X36201145Y-13092418D02*
G01*
X36145793Y-13171042D01*
X36103471Y-13263007D01*
X36072439Y-13390613D01*
X36050954Y-13576161D01*
X36037275Y-13841954D01*
X36029662Y-14210294D01*
X36026373Y-14703482D01*
X36025666Y-15339933D01*
X36025666Y-17364363D01*
X36233485Y-17572181D01*
X36441303Y-17780000D01*
X46524333Y-17780000D01*
X46524333Y-22267333D01*
X36376623Y-22267333D01*
X36201145Y-22490418D01*
X36145604Y-22569347D01*
X36103188Y-22661677D01*
X36072135Y-22789813D01*
X36050683Y-22976160D01*
X36037072Y-23243122D01*
X36029539Y-23613104D01*
X36026325Y-24108511D01*
X36025666Y-24722666D01*
X36026393Y-25359508D01*
X36029748Y-25849424D01*
X36037491Y-26214819D01*
X36051384Y-26478097D01*
X36073189Y-26661662D01*
X36104667Y-26787921D01*
X36147578Y-26879277D01*
X36201145Y-26954915D01*
X36376623Y-27178000D01*
X46524333Y-27178000D01*
X46524333Y-31665333D01*
X36441303Y-31665333D01*
X36233485Y-31873151D01*
X36025666Y-32080969D01*
X36025666Y-34105400D01*
X36026382Y-34744884D01*
X36029690Y-35237339D01*
X36037331Y-35605066D01*
X36051047Y-35870367D01*
X36072579Y-36055543D01*
X36103668Y-36182897D01*
X36146055Y-36274729D01*
X36201145Y-36352915D01*
X36376623Y-36576000D01*
X51066816Y-36576000D01*
X51435000Y-36184086D01*
X51435000Y-14139333D01*
X50165000Y-14139333D01*
X50165000Y-35306000D01*
X37290888Y-35306000D01*
X37338000Y-32977666D01*
X42426638Y-32955843D01*
X43481223Y-32951222D01*
X44379489Y-32946782D01*
X45134447Y-32942028D01*
X45759112Y-32936468D01*
X46266495Y-32929606D01*
X46669610Y-32920950D01*
X46981468Y-32910004D01*
X47215082Y-32896275D01*
X47383466Y-32879269D01*
X47499631Y-32858491D01*
X47576590Y-32833449D01*
X47627356Y-32803648D01*
X47664942Y-32768593D01*
X47675971Y-32756561D01*
X47718766Y-32700353D01*
X47753507Y-32624266D01*
X47781219Y-32510845D01*
X47802929Y-32342639D01*
X47819663Y-32102195D01*
X47832446Y-31772059D01*
X47842306Y-31334781D01*
X47850268Y-30772906D01*
X47857358Y-30068983D01*
X47861353Y-29603383D01*
X47865791Y-28902418D01*
X47867293Y-28249309D01*
X47866014Y-27664861D01*
X47862106Y-27169876D01*
X47855722Y-26785157D01*
X47847015Y-26531509D01*
X47838033Y-26435013D01*
X47740613Y-26226423D01*
X47622846Y-26075179D01*
X47583675Y-26040485D01*
X47532297Y-26010954D01*
X47455670Y-25986169D01*
X47340757Y-25965716D01*
X47174517Y-25949178D01*
X46943910Y-25936141D01*
X46635897Y-25926190D01*
X46237439Y-25918907D01*
X45735494Y-25913879D01*
X45117025Y-25910690D01*
X44368990Y-25908924D01*
X43478351Y-25908166D01*
X42432068Y-25908000D01*
X37295666Y-25908000D01*
X37295666Y-23537333D01*
X42375666Y-23537333D01*
X43430041Y-23537185D01*
X44328122Y-23536467D01*
X45082949Y-23534760D01*
X45707562Y-23531652D01*
X46215000Y-23526725D01*
X46618303Y-23519565D01*
X46930512Y-23509756D01*
X47164664Y-23496883D01*
X47333801Y-23480529D01*
X47450962Y-23460281D01*
X47529186Y-23435722D01*
X47581514Y-23406436D01*
X47620984Y-23372009D01*
X47622846Y-23370153D01*
X47768714Y-23171919D01*
X47838033Y-23010320D01*
X47848570Y-22882644D01*
X47856912Y-22606451D01*
X47862907Y-22202543D01*
X47866402Y-21691723D01*
X47867243Y-21094795D01*
X47865278Y-20432562D01*
X47861353Y-19841949D01*
X47854303Y-19050331D01*
X47846958Y-18410592D01*
X47838294Y-17905279D01*
X47827283Y-17516941D01*
X47812901Y-17228123D01*
X47794120Y-17021375D01*
X47769915Y-16879242D01*
X47739259Y-16784273D01*
X47701127Y-16719014D01*
X47675971Y-16688772D01*
X47639831Y-16651985D01*
X47594551Y-16620605D01*
X47527119Y-16594138D01*
X47424522Y-16572089D01*
X47273748Y-16553965D01*
X47061784Y-16539271D01*
X46775618Y-16527514D01*
X46402236Y-16518199D01*
X45928626Y-16510833D01*
X45341776Y-16504921D01*
X44628673Y-16499970D01*
X43776304Y-16495485D01*
X42771656Y-16490973D01*
X42426638Y-16489489D01*
X37338000Y-16467666D01*
X37314444Y-15303500D01*
X37290888Y-14139333D01*
X50165000Y-14139333D01*
X51435000Y-14139333D01*
X51435000Y-13237517D01*
X51043086Y-12869333D01*
X36376623Y-12869333D01*
X36201145Y-13092418D01*
X36201145Y-13092418D01*
G37*
X36201145Y-13092418D02*
X36145793Y-13171042D01*
X36103471Y-13263007D01*
X36072439Y-13390613D01*
X36050954Y-13576161D01*
X36037275Y-13841954D01*
X36029662Y-14210294D01*
X36026373Y-14703482D01*
X36025666Y-15339933D01*
X36025666Y-17364363D01*
X36233485Y-17572181D01*
X36441303Y-17780000D01*
X46524333Y-17780000D01*
X46524333Y-22267333D01*
X36376623Y-22267333D01*
X36201145Y-22490418D01*
X36145604Y-22569347D01*
X36103188Y-22661677D01*
X36072135Y-22789813D01*
X36050683Y-22976160D01*
X36037072Y-23243122D01*
X36029539Y-23613104D01*
X36026325Y-24108511D01*
X36025666Y-24722666D01*
X36026393Y-25359508D01*
X36029748Y-25849424D01*
X36037491Y-26214819D01*
X36051384Y-26478097D01*
X36073189Y-26661662D01*
X36104667Y-26787921D01*
X36147578Y-26879277D01*
X36201145Y-26954915D01*
X36376623Y-27178000D01*
X46524333Y-27178000D01*
X46524333Y-31665333D01*
X36441303Y-31665333D01*
X36233485Y-31873151D01*
X36025666Y-32080969D01*
X36025666Y-34105400D01*
X36026382Y-34744884D01*
X36029690Y-35237339D01*
X36037331Y-35605066D01*
X36051047Y-35870367D01*
X36072579Y-36055543D01*
X36103668Y-36182897D01*
X36146055Y-36274729D01*
X36201145Y-36352915D01*
X36376623Y-36576000D01*
X51066816Y-36576000D01*
X51435000Y-36184086D01*
X51435000Y-14139333D01*
X50165000Y-14139333D01*
X50165000Y-35306000D01*
X37290888Y-35306000D01*
X37338000Y-32977666D01*
X42426638Y-32955843D01*
X43481223Y-32951222D01*
X44379489Y-32946782D01*
X45134447Y-32942028D01*
X45759112Y-32936468D01*
X46266495Y-32929606D01*
X46669610Y-32920950D01*
X46981468Y-32910004D01*
X47215082Y-32896275D01*
X47383466Y-32879269D01*
X47499631Y-32858491D01*
X47576590Y-32833449D01*
X47627356Y-32803648D01*
X47664942Y-32768593D01*
X47675971Y-32756561D01*
X47718766Y-32700353D01*
X47753507Y-32624266D01*
X47781219Y-32510845D01*
X47802929Y-32342639D01*
X47819663Y-32102195D01*
X47832446Y-31772059D01*
X47842306Y-31334781D01*
X47850268Y-30772906D01*
X47857358Y-30068983D01*
X47861353Y-29603383D01*
X47865791Y-28902418D01*
X47867293Y-28249309D01*
X47866014Y-27664861D01*
X47862106Y-27169876D01*
X47855722Y-26785157D01*
X47847015Y-26531509D01*
X47838033Y-26435013D01*
X47740613Y-26226423D01*
X47622846Y-26075179D01*
X47583675Y-26040485D01*
X47532297Y-26010954D01*
X47455670Y-25986169D01*
X47340757Y-25965716D01*
X47174517Y-25949178D01*
X46943910Y-25936141D01*
X46635897Y-25926190D01*
X46237439Y-25918907D01*
X45735494Y-25913879D01*
X45117025Y-25910690D01*
X44368990Y-25908924D01*
X43478351Y-25908166D01*
X42432068Y-25908000D01*
X37295666Y-25908000D01*
X37295666Y-23537333D01*
X42375666Y-23537333D01*
X43430041Y-23537185D01*
X44328122Y-23536467D01*
X45082949Y-23534760D01*
X45707562Y-23531652D01*
X46215000Y-23526725D01*
X46618303Y-23519565D01*
X46930512Y-23509756D01*
X47164664Y-23496883D01*
X47333801Y-23480529D01*
X47450962Y-23460281D01*
X47529186Y-23435722D01*
X47581514Y-23406436D01*
X47620984Y-23372009D01*
X47622846Y-23370153D01*
X47768714Y-23171919D01*
X47838033Y-23010320D01*
X47848570Y-22882644D01*
X47856912Y-22606451D01*
X47862907Y-22202543D01*
X47866402Y-21691723D01*
X47867243Y-21094795D01*
X47865278Y-20432562D01*
X47861353Y-19841949D01*
X47854303Y-19050331D01*
X47846958Y-18410592D01*
X47838294Y-17905279D01*
X47827283Y-17516941D01*
X47812901Y-17228123D01*
X47794120Y-17021375D01*
X47769915Y-16879242D01*
X47739259Y-16784273D01*
X47701127Y-16719014D01*
X47675971Y-16688772D01*
X47639831Y-16651985D01*
X47594551Y-16620605D01*
X47527119Y-16594138D01*
X47424522Y-16572089D01*
X47273748Y-16553965D01*
X47061784Y-16539271D01*
X46775618Y-16527514D01*
X46402236Y-16518199D01*
X45928626Y-16510833D01*
X45341776Y-16504921D01*
X44628673Y-16499970D01*
X43776304Y-16495485D01*
X42771656Y-16490973D01*
X42426638Y-16489489D01*
X37338000Y-16467666D01*
X37314444Y-15303500D01*
X37290888Y-14139333D01*
X50165000Y-14139333D01*
X51435000Y-14139333D01*
X51435000Y-13237517D01*
X51043086Y-12869333D01*
X36376623Y-12869333D01*
X36201145Y-13092418D01*
G36*
X63761371Y-12870225D02*
G01*
X63266147Y-12873968D01*
X62896296Y-12882156D01*
X62629840Y-12896386D01*
X62444801Y-12918255D01*
X62319201Y-12949360D01*
X62231063Y-12991296D01*
X62175880Y-13031174D01*
X61976000Y-13193016D01*
X61953724Y-22429174D01*
X61931449Y-31665333D01*
X52189303Y-31665333D01*
X51981485Y-31873151D01*
X51773666Y-32080969D01*
X51773666Y-34144392D01*
X51774044Y-34787555D01*
X51776430Y-35282976D01*
X51782709Y-35652246D01*
X51794762Y-35916956D01*
X51814472Y-36098698D01*
X51843721Y-36219062D01*
X51884392Y-36299640D01*
X51938368Y-36362022D01*
X51969623Y-36391908D01*
X52165580Y-36576000D01*
X59314457Y-36573425D01*
X60707621Y-36571915D01*
X61963023Y-36568466D01*
X63076922Y-36563123D01*
X64045575Y-36555931D01*
X64865242Y-36546934D01*
X65532181Y-36536177D01*
X66042650Y-36523704D01*
X66392907Y-36509561D01*
X66579212Y-36493791D01*
X66608167Y-36486416D01*
X66724982Y-36352917D01*
X66826588Y-36132566D01*
X66840528Y-36086824D01*
X66853290Y-35956519D01*
X66865088Y-35669178D01*
X66875922Y-35237093D01*
X66885792Y-34672560D01*
X66894699Y-33987871D01*
X66902642Y-33195322D01*
X66909622Y-32307204D01*
X66915639Y-31335814D01*
X66920693Y-30293443D01*
X66924785Y-29192387D01*
X66927914Y-28044939D01*
X66930081Y-26863393D01*
X66931286Y-25660043D01*
X66931529Y-24447182D01*
X66930811Y-23237105D01*
X66929131Y-22042106D01*
X66926490Y-20874477D01*
X66922888Y-19746514D01*
X66918326Y-18670510D01*
X66912802Y-17658759D01*
X66906319Y-16723554D01*
X66898875Y-15877190D01*
X66890471Y-15131961D01*
X66881107Y-14500160D01*
X66873747Y-14139333D01*
X65574333Y-14139333D01*
X65574333Y-35306000D01*
X53043666Y-35306000D01*
X53043666Y-32935333D01*
X62937376Y-32935333D01*
X63112855Y-32712248D01*
X63140463Y-32675389D01*
X63165013Y-32632635D01*
X63186682Y-32574366D01*
X63205652Y-32490961D01*
X63222102Y-32372800D01*
X63236211Y-32210262D01*
X63248158Y-31993726D01*
X63258125Y-31713573D01*
X63266290Y-31360180D01*
X63272832Y-30923928D01*
X63277932Y-30395196D01*
X63281770Y-29764363D01*
X63284524Y-29021809D01*
X63286374Y-28157913D01*
X63287501Y-27163055D01*
X63288083Y-26027613D01*
X63288301Y-24741967D01*
X63288333Y-23314248D01*
X63288333Y-14139333D01*
X65574333Y-14139333D01*
X66873747Y-14139333D01*
X66870784Y-13994081D01*
X66859502Y-13626019D01*
X66847260Y-13408266D01*
X66840156Y-13357162D01*
X66742886Y-13128213D01*
X66616099Y-12970581D01*
X66592195Y-12954996D01*
X66456836Y-12928010D01*
X66171271Y-12905237D01*
X65754593Y-12887422D01*
X65225895Y-12875313D01*
X64604267Y-12869659D01*
X64403946Y-12869333D01*
X63761371Y-12870225D01*
X63761371Y-12870225D01*
G37*
X63761371Y-12870225D02*
X63266147Y-12873968D01*
X62896296Y-12882156D01*
X62629840Y-12896386D01*
X62444801Y-12918255D01*
X62319201Y-12949360D01*
X62231063Y-12991296D01*
X62175880Y-13031174D01*
X61976000Y-13193016D01*
X61953724Y-22429174D01*
X61931449Y-31665333D01*
X52189303Y-31665333D01*
X51981485Y-31873151D01*
X51773666Y-32080969D01*
X51773666Y-34144392D01*
X51774044Y-34787555D01*
X51776430Y-35282976D01*
X51782709Y-35652246D01*
X51794762Y-35916956D01*
X51814472Y-36098698D01*
X51843721Y-36219062D01*
X51884392Y-36299640D01*
X51938368Y-36362022D01*
X51969623Y-36391908D01*
X52165580Y-36576000D01*
X59314457Y-36573425D01*
X60707621Y-36571915D01*
X61963023Y-36568466D01*
X63076922Y-36563123D01*
X64045575Y-36555931D01*
X64865242Y-36546934D01*
X65532181Y-36536177D01*
X66042650Y-36523704D01*
X66392907Y-36509561D01*
X66579212Y-36493791D01*
X66608167Y-36486416D01*
X66724982Y-36352917D01*
X66826588Y-36132566D01*
X66840528Y-36086824D01*
X66853290Y-35956519D01*
X66865088Y-35669178D01*
X66875922Y-35237093D01*
X66885792Y-34672560D01*
X66894699Y-33987871D01*
X66902642Y-33195322D01*
X66909622Y-32307204D01*
X66915639Y-31335814D01*
X66920693Y-30293443D01*
X66924785Y-29192387D01*
X66927914Y-28044939D01*
X66930081Y-26863393D01*
X66931286Y-25660043D01*
X66931529Y-24447182D01*
X66930811Y-23237105D01*
X66929131Y-22042106D01*
X66926490Y-20874477D01*
X66922888Y-19746514D01*
X66918326Y-18670510D01*
X66912802Y-17658759D01*
X66906319Y-16723554D01*
X66898875Y-15877190D01*
X66890471Y-15131961D01*
X66881107Y-14500160D01*
X66873747Y-14139333D01*
X65574333Y-14139333D01*
X65574333Y-35306000D01*
X53043666Y-35306000D01*
X53043666Y-32935333D01*
X62937376Y-32935333D01*
X63112855Y-32712248D01*
X63140463Y-32675389D01*
X63165013Y-32632635D01*
X63186682Y-32574366D01*
X63205652Y-32490961D01*
X63222102Y-32372800D01*
X63236211Y-32210262D01*
X63248158Y-31993726D01*
X63258125Y-31713573D01*
X63266290Y-31360180D01*
X63272832Y-30923928D01*
X63277932Y-30395196D01*
X63281770Y-29764363D01*
X63284524Y-29021809D01*
X63286374Y-28157913D01*
X63287501Y-27163055D01*
X63288083Y-26027613D01*
X63288301Y-24741967D01*
X63288333Y-23314248D01*
X63288333Y-14139333D01*
X65574333Y-14139333D01*
X66873747Y-14139333D01*
X66870784Y-13994081D01*
X66859502Y-13626019D01*
X66847260Y-13408266D01*
X66840156Y-13357162D01*
X66742886Y-13128213D01*
X66616099Y-12970581D01*
X66592195Y-12954996D01*
X66456836Y-12928010D01*
X66171271Y-12905237D01*
X65754593Y-12887422D01*
X65225895Y-12875313D01*
X64604267Y-12869659D01*
X64403946Y-12869333D01*
X63761371Y-12870225D01*
G36*
X79057668Y-12891284D02*
G01*
X77955208Y-12897430D01*
X77007318Y-12903365D01*
X76199242Y-12910591D01*
X75516225Y-12920609D01*
X74943512Y-12934920D01*
X74466349Y-12955025D01*
X74069979Y-12982424D01*
X73739648Y-13018619D01*
X73460601Y-13065110D01*
X73218082Y-13123400D01*
X72997336Y-13194988D01*
X72783609Y-13281375D01*
X72562144Y-13384063D01*
X72318187Y-13504552D01*
X72136000Y-13595394D01*
X71191599Y-14151737D01*
X70373539Y-14820683D01*
X69680757Y-15603293D01*
X69112190Y-16500624D01*
X68999699Y-16721666D01*
X68745886Y-17270982D01*
X68563116Y-17750795D01*
X68440583Y-18210663D01*
X68367486Y-18700144D01*
X68333019Y-19268795D01*
X68326000Y-19812000D01*
X68329845Y-20332756D01*
X68344460Y-20727580D01*
X68374460Y-21039760D01*
X68424463Y-21312587D01*
X68499085Y-21589348D01*
X68524258Y-21671020D01*
X68672734Y-22089067D01*
X68861614Y-22542655D01*
X69067089Y-22980579D01*
X69265346Y-23351632D01*
X69409844Y-23575457D01*
X69461578Y-23665948D01*
X69457061Y-23761230D01*
X69379759Y-23893993D01*
X69213137Y-24096925D01*
X69056930Y-24273207D01*
X68393585Y-25138132D01*
X67870456Y-26085507D01*
X67492006Y-27096568D01*
X67262698Y-28152546D01*
X67186994Y-29234676D01*
X67269359Y-30324191D01*
X67430986Y-31110087D01*
X67780012Y-32112816D01*
X68275063Y-33050969D01*
X68900331Y-33909817D01*
X69640010Y-34674630D01*
X70478294Y-35330679D01*
X71399377Y-35863235D01*
X72387452Y-36257569D01*
X73166100Y-36454352D01*
X73334400Y-36480645D01*
X73551938Y-36503083D01*
X73831578Y-36521932D01*
X74186183Y-36537462D01*
X74628619Y-36549939D01*
X75171748Y-36559632D01*
X75828433Y-36566808D01*
X76611540Y-36571737D01*
X77533932Y-36574685D01*
X78608472Y-36575922D01*
X79005296Y-36576000D01*
X84208697Y-36576000D01*
X84416515Y-36368181D01*
X84624333Y-36160363D01*
X84624333Y-35316064D01*
X83269666Y-35316064D01*
X78422500Y-35285493D01*
X77376480Y-35278447D01*
X76485631Y-35271230D01*
X75735791Y-35263374D01*
X75112799Y-35254410D01*
X74602494Y-35243870D01*
X74190713Y-35231286D01*
X73863294Y-35216190D01*
X73606076Y-35198113D01*
X73404897Y-35176589D01*
X73245596Y-35151147D01*
X73114010Y-35121321D01*
X73067333Y-35108453D01*
X72102401Y-34749261D01*
X71234717Y-34264248D01*
X70471883Y-33667750D01*
X69821504Y-32974103D01*
X69291181Y-32197640D01*
X68888519Y-31352698D01*
X68621121Y-30453612D01*
X68496590Y-29514718D01*
X68522529Y-28550349D01*
X68706542Y-27574843D01*
X68841325Y-27140682D01*
X69048818Y-26619346D01*
X69298707Y-26145034D01*
X69617357Y-25677189D01*
X70031130Y-25175252D01*
X70336833Y-24839987D01*
X70711486Y-24422876D01*
X70955097Y-24110817D01*
X71068522Y-23902669D01*
X71077666Y-23851009D01*
X71028507Y-23683219D01*
X70900100Y-23439716D01*
X70734210Y-23192791D01*
X70217658Y-22368457D01*
X69854761Y-21497130D01*
X69644300Y-20596593D01*
X69585058Y-19684630D01*
X69675816Y-18779026D01*
X69915356Y-17897563D01*
X70302461Y-17058027D01*
X70835912Y-16278201D01*
X71238209Y-15833892D01*
X71752324Y-15368010D01*
X72262389Y-15008892D01*
X72568143Y-14837542D01*
X72828652Y-14702839D01*
X73059211Y-14588314D01*
X73275678Y-14492233D01*
X73493910Y-14412860D01*
X73729764Y-14348460D01*
X73999099Y-14297298D01*
X74317770Y-14257639D01*
X74701636Y-14227748D01*
X75166553Y-14205890D01*
X75728380Y-14190329D01*
X76402973Y-14179330D01*
X77206190Y-14171159D01*
X78153888Y-14164080D01*
X78761166Y-14159894D01*
X83269666Y-14128641D01*
X83269666Y-35316064D01*
X84624333Y-35316064D01*
X84624333Y-13284969D01*
X84201336Y-12861972D01*
X79057668Y-12891284D01*
X79057668Y-12891284D01*
G37*
X79057668Y-12891284D02*
X77955208Y-12897430D01*
X77007318Y-12903365D01*
X76199242Y-12910591D01*
X75516225Y-12920609D01*
X74943512Y-12934920D01*
X74466349Y-12955025D01*
X74069979Y-12982424D01*
X73739648Y-13018619D01*
X73460601Y-13065110D01*
X73218082Y-13123400D01*
X72997336Y-13194988D01*
X72783609Y-13281375D01*
X72562144Y-13384063D01*
X72318187Y-13504552D01*
X72136000Y-13595394D01*
X71191599Y-14151737D01*
X70373539Y-14820683D01*
X69680757Y-15603293D01*
X69112190Y-16500624D01*
X68999699Y-16721666D01*
X68745886Y-17270982D01*
X68563116Y-17750795D01*
X68440583Y-18210663D01*
X68367486Y-18700144D01*
X68333019Y-19268795D01*
X68326000Y-19812000D01*
X68329845Y-20332756D01*
X68344460Y-20727580D01*
X68374460Y-21039760D01*
X68424463Y-21312587D01*
X68499085Y-21589348D01*
X68524258Y-21671020D01*
X68672734Y-22089067D01*
X68861614Y-22542655D01*
X69067089Y-22980579D01*
X69265346Y-23351632D01*
X69409844Y-23575457D01*
X69461578Y-23665948D01*
X69457061Y-23761230D01*
X69379759Y-23893993D01*
X69213137Y-24096925D01*
X69056930Y-24273207D01*
X68393585Y-25138132D01*
X67870456Y-26085507D01*
X67492006Y-27096568D01*
X67262698Y-28152546D01*
X67186994Y-29234676D01*
X67269359Y-30324191D01*
X67430986Y-31110087D01*
X67780012Y-32112816D01*
X68275063Y-33050969D01*
X68900331Y-33909817D01*
X69640010Y-34674630D01*
X70478294Y-35330679D01*
X71399377Y-35863235D01*
X72387452Y-36257569D01*
X73166100Y-36454352D01*
X73334400Y-36480645D01*
X73551938Y-36503083D01*
X73831578Y-36521932D01*
X74186183Y-36537462D01*
X74628619Y-36549939D01*
X75171748Y-36559632D01*
X75828433Y-36566808D01*
X76611540Y-36571737D01*
X77533932Y-36574685D01*
X78608472Y-36575922D01*
X79005296Y-36576000D01*
X84208697Y-36576000D01*
X84416515Y-36368181D01*
X84624333Y-36160363D01*
X84624333Y-35316064D01*
X83269666Y-35316064D01*
X78422500Y-35285493D01*
X77376480Y-35278447D01*
X76485631Y-35271230D01*
X75735791Y-35263374D01*
X75112799Y-35254410D01*
X74602494Y-35243870D01*
X74190713Y-35231286D01*
X73863294Y-35216190D01*
X73606076Y-35198113D01*
X73404897Y-35176589D01*
X73245596Y-35151147D01*
X73114010Y-35121321D01*
X73067333Y-35108453D01*
X72102401Y-34749261D01*
X71234717Y-34264248D01*
X70471883Y-33667750D01*
X69821504Y-32974103D01*
X69291181Y-32197640D01*
X68888519Y-31352698D01*
X68621121Y-30453612D01*
X68496590Y-29514718D01*
X68522529Y-28550349D01*
X68706542Y-27574843D01*
X68841325Y-27140682D01*
X69048818Y-26619346D01*
X69298707Y-26145034D01*
X69617357Y-25677189D01*
X70031130Y-25175252D01*
X70336833Y-24839987D01*
X70711486Y-24422876D01*
X70955097Y-24110817D01*
X71068522Y-23902669D01*
X71077666Y-23851009D01*
X71028507Y-23683219D01*
X70900100Y-23439716D01*
X70734210Y-23192791D01*
X70217658Y-22368457D01*
X69854761Y-21497130D01*
X69644300Y-20596593D01*
X69585058Y-19684630D01*
X69675816Y-18779026D01*
X69915356Y-17897563D01*
X70302461Y-17058027D01*
X70835912Y-16278201D01*
X71238209Y-15833892D01*
X71752324Y-15368010D01*
X72262389Y-15008892D01*
X72568143Y-14837542D01*
X72828652Y-14702839D01*
X73059211Y-14588314D01*
X73275678Y-14492233D01*
X73493910Y-14412860D01*
X73729764Y-14348460D01*
X73999099Y-14297298D01*
X74317770Y-14257639D01*
X74701636Y-14227748D01*
X75166553Y-14205890D01*
X75728380Y-14190329D01*
X76402973Y-14179330D01*
X77206190Y-14171159D01*
X78153888Y-14164080D01*
X78761166Y-14159894D01*
X83269666Y-14128641D01*
X83269666Y-35316064D01*
X84624333Y-35316064D01*
X84624333Y-13284969D01*
X84201336Y-12861972D01*
X79057668Y-12891284D01*
G36*
X95365537Y-12249931D02*
G01*
X94300152Y-12429420D01*
X94234336Y-12445913D01*
X93395026Y-12734090D01*
X92554161Y-13158692D01*
X91753668Y-13692489D01*
X91035473Y-14308250D01*
X90551090Y-14838171D01*
X90233173Y-15287620D01*
X89907498Y-15843516D01*
X89602351Y-16449095D01*
X89346020Y-17047590D01*
X89166791Y-17582239D01*
X89148409Y-17653000D01*
X89051205Y-18215760D01*
X89003428Y-18878537D01*
X89005177Y-19579358D01*
X89056549Y-20256251D01*
X89143489Y-20785666D01*
X89308737Y-21350708D01*
X89558664Y-21979608D01*
X89865315Y-22614432D01*
X90200735Y-23197245D01*
X90533111Y-23665410D01*
X90949510Y-24174487D01*
X90430495Y-24741499D01*
X89724242Y-25633438D01*
X89169542Y-26596562D01*
X88769927Y-27621028D01*
X88528931Y-28696993D01*
X88450086Y-29814612D01*
X88462118Y-30226000D01*
X88560203Y-31126510D01*
X88760332Y-31952863D01*
X89080550Y-32770867D01*
X89260619Y-33138293D01*
X89860162Y-34126620D01*
X90572651Y-34988794D01*
X91397864Y-35724624D01*
X92335581Y-36333923D01*
X93385580Y-36816500D01*
X93683666Y-36923474D01*
X94022084Y-37033803D01*
X94306901Y-37110999D01*
X94584647Y-37161921D01*
X94901852Y-37193426D01*
X95305045Y-37212374D01*
X95715666Y-37222989D01*
X96360786Y-37227524D01*
X96873958Y-37208403D01*
X97291187Y-37163546D01*
X97536000Y-37117833D01*
X98533366Y-36814494D01*
X99477219Y-36368430D01*
X100353248Y-35795722D01*
X101147143Y-35112445D01*
X101844593Y-34334680D01*
X102431287Y-33478503D01*
X102892914Y-32559993D01*
X103215164Y-31595228D01*
X103383725Y-30600286D01*
X103388437Y-30542622D01*
X103445314Y-29802666D01*
X99554936Y-29802666D01*
X99451518Y-30363939D01*
X99238841Y-31091018D01*
X98896117Y-31733999D01*
X98442982Y-32282936D01*
X97899073Y-32727882D01*
X97284027Y-33058891D01*
X96617481Y-33266017D01*
X95919074Y-33339314D01*
X95208440Y-33268837D01*
X94505219Y-33044638D01*
X94326056Y-32959959D01*
X93699518Y-32555411D01*
X93191132Y-32050132D01*
X92804202Y-31466064D01*
X92542033Y-30825152D01*
X92407931Y-30149337D01*
X92405200Y-29460562D01*
X92537146Y-28780770D01*
X92807073Y-28131905D01*
X93218287Y-27535908D01*
X93469419Y-27272596D01*
X93857494Y-26943106D01*
X94258943Y-26688143D01*
X94701439Y-26499692D01*
X95212654Y-26369739D01*
X95820258Y-26290272D01*
X96551923Y-26253275D01*
X97006833Y-26248136D01*
X98255666Y-26246666D01*
X98255666Y-22368447D01*
X96752833Y-22337403D01*
X96208223Y-22324902D01*
X95801031Y-22310349D01*
X95499357Y-22289505D01*
X95271301Y-22258130D01*
X95084961Y-22211986D01*
X94908438Y-22146831D01*
X94732653Y-22068921D01*
X94167837Y-21724247D01*
X93665386Y-21251331D01*
X93265890Y-20689861D01*
X93203728Y-20574000D01*
X93092036Y-20336824D01*
X93021858Y-20123594D01*
X92983696Y-19882005D01*
X92968052Y-19559748D01*
X92965418Y-19261666D01*
X92971937Y-18828109D01*
X92998179Y-18512841D01*
X93051613Y-18265265D01*
X93139708Y-18034782D01*
X93149768Y-18012768D01*
X93408796Y-17585777D01*
X93776167Y-17152944D01*
X94200980Y-16766006D01*
X94632333Y-16476698D01*
X94690397Y-16446906D01*
X94913319Y-16344378D01*
X95113123Y-16277128D01*
X95335345Y-16237830D01*
X95625521Y-16219159D01*
X96029189Y-16213790D01*
X96140354Y-16213666D01*
X96569090Y-16216325D01*
X96875892Y-16230006D01*
X97108143Y-16263269D01*
X97313225Y-16324669D01*
X97538521Y-16422767D01*
X97681064Y-16491944D01*
X98223993Y-16835415D01*
X98686656Y-17278768D01*
X99043611Y-17789376D01*
X99269415Y-18334609D01*
X99323683Y-18598571D01*
X99363211Y-18867181D01*
X99402152Y-19094740D01*
X99406162Y-19115084D01*
X99445021Y-19307168D01*
X103293333Y-19261666D01*
X103277013Y-18657589D01*
X103169994Y-17741095D01*
X102908017Y-16837827D01*
X102505380Y-15966161D01*
X101976381Y-15144475D01*
X101335316Y-14391146D01*
X100596484Y-13724551D01*
X99774181Y-13163067D01*
X98882705Y-12725072D01*
X98571413Y-12609269D01*
X97538355Y-12341256D01*
X96457334Y-12221010D01*
X95365537Y-12249931D01*
X95365537Y-12249931D01*
G37*
X95365537Y-12249931D02*
X94300152Y-12429420D01*
X94234336Y-12445913D01*
X93395026Y-12734090D01*
X92554161Y-13158692D01*
X91753668Y-13692489D01*
X91035473Y-14308250D01*
X90551090Y-14838171D01*
X90233173Y-15287620D01*
X89907498Y-15843516D01*
X89602351Y-16449095D01*
X89346020Y-17047590D01*
X89166791Y-17582239D01*
X89148409Y-17653000D01*
X89051205Y-18215760D01*
X89003428Y-18878537D01*
X89005177Y-19579358D01*
X89056549Y-20256251D01*
X89143489Y-20785666D01*
X89308737Y-21350708D01*
X89558664Y-21979608D01*
X89865315Y-22614432D01*
X90200735Y-23197245D01*
X90533111Y-23665410D01*
X90949510Y-24174487D01*
X90430495Y-24741499D01*
X89724242Y-25633438D01*
X89169542Y-26596562D01*
X88769927Y-27621028D01*
X88528931Y-28696993D01*
X88450086Y-29814612D01*
X88462118Y-30226000D01*
X88560203Y-31126510D01*
X88760332Y-31952863D01*
X89080550Y-32770867D01*
X89260619Y-33138293D01*
X89860162Y-34126620D01*
X90572651Y-34988794D01*
X91397864Y-35724624D01*
X92335581Y-36333923D01*
X93385580Y-36816500D01*
X93683666Y-36923474D01*
X94022084Y-37033803D01*
X94306901Y-37110999D01*
X94584647Y-37161921D01*
X94901852Y-37193426D01*
X95305045Y-37212374D01*
X95715666Y-37222989D01*
X96360786Y-37227524D01*
X96873958Y-37208403D01*
X97291187Y-37163546D01*
X97536000Y-37117833D01*
X98533366Y-36814494D01*
X99477219Y-36368430D01*
X100353248Y-35795722D01*
X101147143Y-35112445D01*
X101844593Y-34334680D01*
X102431287Y-33478503D01*
X102892914Y-32559993D01*
X103215164Y-31595228D01*
X103383725Y-30600286D01*
X103388437Y-30542622D01*
X103445314Y-29802666D01*
X99554936Y-29802666D01*
X99451518Y-30363939D01*
X99238841Y-31091018D01*
X98896117Y-31733999D01*
X98442982Y-32282936D01*
X97899073Y-32727882D01*
X97284027Y-33058891D01*
X96617481Y-33266017D01*
X95919074Y-33339314D01*
X95208440Y-33268837D01*
X94505219Y-33044638D01*
X94326056Y-32959959D01*
X93699518Y-32555411D01*
X93191132Y-32050132D01*
X92804202Y-31466064D01*
X92542033Y-30825152D01*
X92407931Y-30149337D01*
X92405200Y-29460562D01*
X92537146Y-28780770D01*
X92807073Y-28131905D01*
X93218287Y-27535908D01*
X93469419Y-27272596D01*
X93857494Y-26943106D01*
X94258943Y-26688143D01*
X94701439Y-26499692D01*
X95212654Y-26369739D01*
X95820258Y-26290272D01*
X96551923Y-26253275D01*
X97006833Y-26248136D01*
X98255666Y-26246666D01*
X98255666Y-22368447D01*
X96752833Y-22337403D01*
X96208223Y-22324902D01*
X95801031Y-22310349D01*
X95499357Y-22289505D01*
X95271301Y-22258130D01*
X95084961Y-22211986D01*
X94908438Y-22146831D01*
X94732653Y-22068921D01*
X94167837Y-21724247D01*
X93665386Y-21251331D01*
X93265890Y-20689861D01*
X93203728Y-20574000D01*
X93092036Y-20336824D01*
X93021858Y-20123594D01*
X92983696Y-19882005D01*
X92968052Y-19559748D01*
X92965418Y-19261666D01*
X92971937Y-18828109D01*
X92998179Y-18512841D01*
X93051613Y-18265265D01*
X93139708Y-18034782D01*
X93149768Y-18012768D01*
X93408796Y-17585777D01*
X93776167Y-17152944D01*
X94200980Y-16766006D01*
X94632333Y-16476698D01*
X94690397Y-16446906D01*
X94913319Y-16344378D01*
X95113123Y-16277128D01*
X95335345Y-16237830D01*
X95625521Y-16219159D01*
X96029189Y-16213790D01*
X96140354Y-16213666D01*
X96569090Y-16216325D01*
X96875892Y-16230006D01*
X97108143Y-16263269D01*
X97313225Y-16324669D01*
X97538521Y-16422767D01*
X97681064Y-16491944D01*
X98223993Y-16835415D01*
X98686656Y-17278768D01*
X99043611Y-17789376D01*
X99269415Y-18334609D01*
X99323683Y-18598571D01*
X99363211Y-18867181D01*
X99402152Y-19094740D01*
X99406162Y-19115084D01*
X99445021Y-19307168D01*
X103293333Y-19261666D01*
X103277013Y-18657589D01*
X103169994Y-17741095D01*
X102908017Y-16837827D01*
X102505380Y-15966161D01*
X101976381Y-15144475D01*
X101335316Y-14391146D01*
X100596484Y-13724551D01*
X99774181Y-13163067D01*
X98882705Y-12725072D01*
X98571413Y-12609269D01*
X97538355Y-12341256D01*
X96457334Y-12221010D01*
X95365537Y-12249931D01*
G36*
X112083048Y-12263114D02*
G01*
X111433791Y-12330149D01*
X110934586Y-12430320D01*
X109929401Y-12785984D01*
X109003613Y-13277981D01*
X108167858Y-13891588D01*
X107432770Y-14612084D01*
X106808983Y-15424743D01*
X106307131Y-16314844D01*
X105937849Y-17267663D01*
X105711772Y-18268477D01*
X105639533Y-19302562D01*
X105657151Y-19736835D01*
X105812600Y-20772343D01*
X106118139Y-21777251D01*
X106561593Y-22720427D01*
X107130784Y-23570738D01*
X107181207Y-23633598D01*
X107638070Y-24195530D01*
X107301073Y-24522598D01*
X106758044Y-25133949D01*
X106250421Y-25865310D01*
X105806842Y-26667493D01*
X105455939Y-27491309D01*
X105311642Y-27940000D01*
X105246835Y-28214312D01*
X105202148Y-28521041D01*
X105174690Y-28896371D01*
X105161571Y-29376485D01*
X105159429Y-29845000D01*
X105161507Y-30356791D01*
X105169512Y-30739972D01*
X105189048Y-31035268D01*
X105225717Y-31283401D01*
X105285122Y-31525094D01*
X105372866Y-31801072D01*
X105465361Y-32068556D01*
X105922130Y-33140945D01*
X106504893Y-34102065D01*
X107216964Y-34957368D01*
X107230333Y-34971155D01*
X108053681Y-35707318D01*
X108960392Y-36314772D01*
X109927526Y-36780641D01*
X110932140Y-37092049D01*
X111057930Y-37119211D01*
X111550677Y-37191415D01*
X112138319Y-37232754D01*
X112763389Y-37243062D01*
X113368418Y-37222173D01*
X113895939Y-37169920D01*
X114130666Y-37128094D01*
X115171367Y-36816751D01*
X116146884Y-36362750D01*
X117044404Y-35780474D01*
X117851114Y-35084307D01*
X118554199Y-34288632D01*
X119140845Y-33407833D01*
X119598240Y-32456293D01*
X119913567Y-31448395D01*
X120068994Y-30462381D01*
X120124013Y-29802666D01*
X116208226Y-29802666D01*
X116172114Y-29993166D01*
X116030544Y-30643239D01*
X115869819Y-31161980D01*
X115671673Y-31587389D01*
X115417841Y-31957466D01*
X115090058Y-32310210D01*
X115031802Y-32365455D01*
X114432631Y-32821456D01*
X113784895Y-33130489D01*
X113108625Y-33298586D01*
X112423853Y-33331775D01*
X111750610Y-33236090D01*
X111108927Y-33017559D01*
X110518835Y-32682214D01*
X110000367Y-32236085D01*
X109573552Y-31685203D01*
X109258424Y-31035599D01*
X109128420Y-30588169D01*
X109051492Y-30186003D01*
X109026429Y-29860033D01*
X109049349Y-29526561D01*
X109071778Y-29367813D01*
X109266945Y-28620646D01*
X109600405Y-27947321D01*
X110055531Y-27364999D01*
X110615699Y-26890841D01*
X111264283Y-26542009D01*
X111984659Y-26335663D01*
X112014000Y-26330735D01*
X112291129Y-26299699D01*
X112688133Y-26273856D01*
X113155575Y-26255616D01*
X113644021Y-26247388D01*
X113728500Y-26247157D01*
X114935000Y-26246666D01*
X114935000Y-22352000D01*
X113589252Y-22352000D01*
X112887885Y-22341921D01*
X112324871Y-22306190D01*
X111870128Y-22236559D01*
X111493573Y-22124784D01*
X111165121Y-21962618D01*
X110854692Y-21741817D01*
X110621955Y-21538666D01*
X110250301Y-21143696D01*
X109957437Y-20732333D01*
X109879393Y-20589034D01*
X109767780Y-20343413D01*
X109697877Y-20123400D01*
X109660209Y-19875722D01*
X109645304Y-19547109D01*
X109643333Y-19261666D01*
X109649038Y-18844913D01*
X109672292Y-18543144D01*
X109722306Y-18302214D01*
X109808291Y-18067978D01*
X109869409Y-17932696D01*
X110210381Y-17383605D01*
X110672937Y-16896185D01*
X111209952Y-16517562D01*
X111362363Y-16439742D01*
X111592028Y-16339653D01*
X111800736Y-16274196D01*
X112034809Y-16236180D01*
X112340564Y-16218410D01*
X112764323Y-16213697D01*
X112818333Y-16213666D01*
X113257391Y-16217413D01*
X113573512Y-16233450D01*
X113813016Y-16268967D01*
X114022222Y-16331159D01*
X114247451Y-16427216D01*
X114274303Y-16439742D01*
X114847233Y-16796114D01*
X115333896Y-17273783D01*
X115710984Y-17840976D01*
X115955193Y-18465920D01*
X116024850Y-18826217D01*
X116078000Y-19261666D01*
X118006212Y-19284428D01*
X118636522Y-19290516D01*
X119117559Y-19291276D01*
X119469331Y-19285652D01*
X119711844Y-19272587D01*
X119865105Y-19251025D01*
X119949121Y-19219910D01*
X119983209Y-19180058D01*
X119995175Y-19040415D01*
X119983577Y-18782648D01*
X119951065Y-18455926D01*
X119939147Y-18363025D01*
X119716100Y-17323073D01*
X119341540Y-16338871D01*
X118828157Y-15424793D01*
X118188639Y-14595212D01*
X117435675Y-13864504D01*
X116581954Y-13247041D01*
X115640163Y-12757199D01*
X114702080Y-12430320D01*
X114154583Y-12323216D01*
X113498724Y-12259647D01*
X112789785Y-12239613D01*
X112083048Y-12263114D01*
X112083048Y-12263114D01*
G37*
X112083048Y-12263114D02*
X111433791Y-12330149D01*
X110934586Y-12430320D01*
X109929401Y-12785984D01*
X109003613Y-13277981D01*
X108167858Y-13891588D01*
X107432770Y-14612084D01*
X106808983Y-15424743D01*
X106307131Y-16314844D01*
X105937849Y-17267663D01*
X105711772Y-18268477D01*
X105639533Y-19302562D01*
X105657151Y-19736835D01*
X105812600Y-20772343D01*
X106118139Y-21777251D01*
X106561593Y-22720427D01*
X107130784Y-23570738D01*
X107181207Y-23633598D01*
X107638070Y-24195530D01*
X107301073Y-24522598D01*
X106758044Y-25133949D01*
X106250421Y-25865310D01*
X105806842Y-26667493D01*
X105455939Y-27491309D01*
X105311642Y-27940000D01*
X105246835Y-28214312D01*
X105202148Y-28521041D01*
X105174690Y-28896371D01*
X105161571Y-29376485D01*
X105159429Y-29845000D01*
X105161507Y-30356791D01*
X105169512Y-30739972D01*
X105189048Y-31035268D01*
X105225717Y-31283401D01*
X105285122Y-31525094D01*
X105372866Y-31801072D01*
X105465361Y-32068556D01*
X105922130Y-33140945D01*
X106504893Y-34102065D01*
X107216964Y-34957368D01*
X107230333Y-34971155D01*
X108053681Y-35707318D01*
X108960392Y-36314772D01*
X109927526Y-36780641D01*
X110932140Y-37092049D01*
X111057930Y-37119211D01*
X111550677Y-37191415D01*
X112138319Y-37232754D01*
X112763389Y-37243062D01*
X113368418Y-37222173D01*
X113895939Y-37169920D01*
X114130666Y-37128094D01*
X115171367Y-36816751D01*
X116146884Y-36362750D01*
X117044404Y-35780474D01*
X117851114Y-35084307D01*
X118554199Y-34288632D01*
X119140845Y-33407833D01*
X119598240Y-32456293D01*
X119913567Y-31448395D01*
X120068994Y-30462381D01*
X120124013Y-29802666D01*
X116208226Y-29802666D01*
X116172114Y-29993166D01*
X116030544Y-30643239D01*
X115869819Y-31161980D01*
X115671673Y-31587389D01*
X115417841Y-31957466D01*
X115090058Y-32310210D01*
X115031802Y-32365455D01*
X114432631Y-32821456D01*
X113784895Y-33130489D01*
X113108625Y-33298586D01*
X112423853Y-33331775D01*
X111750610Y-33236090D01*
X111108927Y-33017559D01*
X110518835Y-32682214D01*
X110000367Y-32236085D01*
X109573552Y-31685203D01*
X109258424Y-31035599D01*
X109128420Y-30588169D01*
X109051492Y-30186003D01*
X109026429Y-29860033D01*
X109049349Y-29526561D01*
X109071778Y-29367813D01*
X109266945Y-28620646D01*
X109600405Y-27947321D01*
X110055531Y-27364999D01*
X110615699Y-26890841D01*
X111264283Y-26542009D01*
X111984659Y-26335663D01*
X112014000Y-26330735D01*
X112291129Y-26299699D01*
X112688133Y-26273856D01*
X113155575Y-26255616D01*
X113644021Y-26247388D01*
X113728500Y-26247157D01*
X114935000Y-26246666D01*
X114935000Y-22352000D01*
X113589252Y-22352000D01*
X112887885Y-22341921D01*
X112324871Y-22306190D01*
X111870128Y-22236559D01*
X111493573Y-22124784D01*
X111165121Y-21962618D01*
X110854692Y-21741817D01*
X110621955Y-21538666D01*
X110250301Y-21143696D01*
X109957437Y-20732333D01*
X109879393Y-20589034D01*
X109767780Y-20343413D01*
X109697877Y-20123400D01*
X109660209Y-19875722D01*
X109645304Y-19547109D01*
X109643333Y-19261666D01*
X109649038Y-18844913D01*
X109672292Y-18543144D01*
X109722306Y-18302214D01*
X109808291Y-18067978D01*
X109869409Y-17932696D01*
X110210381Y-17383605D01*
X110672937Y-16896185D01*
X111209952Y-16517562D01*
X111362363Y-16439742D01*
X111592028Y-16339653D01*
X111800736Y-16274196D01*
X112034809Y-16236180D01*
X112340564Y-16218410D01*
X112764323Y-16213697D01*
X112818333Y-16213666D01*
X113257391Y-16217413D01*
X113573512Y-16233450D01*
X113813016Y-16268967D01*
X114022222Y-16331159D01*
X114247451Y-16427216D01*
X114274303Y-16439742D01*
X114847233Y-16796114D01*
X115333896Y-17273783D01*
X115710984Y-17840976D01*
X115955193Y-18465920D01*
X116024850Y-18826217D01*
X116078000Y-19261666D01*
X118006212Y-19284428D01*
X118636522Y-19290516D01*
X119117559Y-19291276D01*
X119469331Y-19285652D01*
X119711844Y-19272587D01*
X119865105Y-19251025D01*
X119949121Y-19219910D01*
X119983209Y-19180058D01*
X119995175Y-19040415D01*
X119983577Y-18782648D01*
X119951065Y-18455926D01*
X119939147Y-18363025D01*
X119716100Y-17323073D01*
X119341540Y-16338871D01*
X118828157Y-15424793D01*
X118188639Y-14595212D01*
X117435675Y-13864504D01*
X116581954Y-13247041D01*
X115640163Y-12757199D01*
X114702080Y-12430320D01*
X114154583Y-12323216D01*
X113498724Y-12259647D01*
X112789785Y-12239613D01*
X112083048Y-12263114D01*
G36*
X120099666Y-38692666D02*
G01*
X135339666Y-38692666D01*
X135339666Y-35898666D01*
X120099666Y-35898666D01*
X120099666Y-38692666D01*
X120099666Y-38692666D01*
G37*
X120099666Y-38692666D02*
X135339666Y-38692666D01*
X135339666Y-35898666D01*
X120099666Y-35898666D01*
X120099666Y-38692666D01*
D14*
X153218750Y-34825000D02*
X153218750Y-35825000D01*
X153218750Y-22325000D02*
X153218750Y-21325000D01*
X154218750Y-21325000D02*
X153218750Y-21325000D01*
X154218750Y-35825000D02*
X153218750Y-35825000D01*
X172218750Y-21325000D02*
X171218750Y-21325000D01*
X172218750Y-22325000D02*
X172218750Y-21325000D01*
X172218750Y-35825000D02*
X171218750Y-35825000D01*
X172218750Y-35825000D02*
X172218750Y-34825000D01*
X125025000Y-2225000D02*
X122075000Y-2225000D01*
X122625000Y875000D02*
X125025000Y875000D01*
X106355000Y827500D02*
X106355000Y2287500D01*
X103195000Y827500D02*
X103195000Y2987500D01*
X103195000Y827500D02*
X104125000Y827500D01*
X106355000Y827500D02*
X105425000Y827500D01*
X140540000Y-258578D02*
X140540000Y258578D01*
X141960000Y-258578D02*
X141960000Y258578D01*
X176870000Y-10450000D02*
X176080000Y-10450000D01*
X176080000Y-3550000D02*
X176870000Y-3550000D01*
X175030000Y-5400000D02*
X175030000Y-7100000D01*
X177880000Y-4150000D02*
X177880000Y-9850000D01*
X179170000Y-6900000D02*
X177880000Y-6900000D01*
X179380000Y-5800000D02*
X179380000Y-6700000D01*
X177880000Y-5600000D02*
X179170000Y-5600000D01*
X179170000Y-6900000D02*
X179380000Y-6700000D01*
X179170000Y-5600000D02*
X179380000Y-5800000D01*
X175030000Y-8400000D02*
X175030000Y-8600000D01*
X149217500Y-55528750D02*
X149217500Y-54068750D01*
X146057500Y-55528750D02*
X146057500Y-53368750D01*
X146057500Y-55528750D02*
X146987500Y-55528750D01*
X149217500Y-55528750D02*
X148287500Y-55528750D01*
X96830000Y-55528750D02*
X96830000Y-54068750D01*
X93670000Y-55528750D02*
X93670000Y-53368750D01*
X93670000Y-55528750D02*
X94600000Y-55528750D01*
X96830000Y-55528750D02*
X95900000Y-55528750D01*
X25392500Y-55528750D02*
X25392500Y-54068750D01*
X22232500Y-55528750D02*
X22232500Y-53368750D01*
X22232500Y-55528750D02*
X23162500Y-55528750D01*
X25392500Y-55528750D02*
X24462500Y-55528750D01*
X141295000Y-46865000D02*
X141295000Y-48325000D01*
X144455000Y-46865000D02*
X144455000Y-49025000D01*
X144455000Y-46865000D02*
X143525000Y-46865000D01*
X141295000Y-46865000D02*
X142225000Y-46865000D01*
X125405000Y-43416250D02*
X125405000Y-41956250D01*
X122245000Y-43416250D02*
X122245000Y-41256250D01*
X122245000Y-43416250D02*
X123175000Y-43416250D01*
X125405000Y-43416250D02*
X124475000Y-43416250D01*
X87305000Y-43416250D02*
X87305000Y-41956250D01*
X84145000Y-43416250D02*
X84145000Y-41256250D01*
X84145000Y-43416250D02*
X85075000Y-43416250D01*
X87305000Y-43416250D02*
X86375000Y-43416250D01*
X49205000Y-43416250D02*
X49205000Y-41956250D01*
X46045000Y-43416250D02*
X46045000Y-41256250D01*
X46045000Y-43416250D02*
X46975000Y-43416250D01*
X49205000Y-43416250D02*
X48275000Y-43416250D01*
X11105000Y-43416250D02*
X11105000Y-41956250D01*
X7945000Y-43416250D02*
X7945000Y-41256250D01*
X7945000Y-43416250D02*
X8875000Y-43416250D01*
X11105000Y-43416250D02*
X10175000Y-43416250D01*
X163505000Y-17270000D02*
X163505000Y-15810000D01*
X160345000Y-17270000D02*
X160345000Y-15110000D01*
X160345000Y-17270000D02*
X161275000Y-17270000D01*
X163505000Y-17270000D02*
X162575000Y-17270000D01*
X125405000Y-25220000D02*
X125405000Y-23760000D01*
X122245000Y-25220000D02*
X122245000Y-23060000D01*
X122245000Y-25220000D02*
X123175000Y-25220000D01*
X125405000Y-25220000D02*
X124475000Y-25220000D01*
X87305000Y-25220000D02*
X87305000Y-23760000D01*
X84145000Y-25220000D02*
X84145000Y-23060000D01*
X84145000Y-25220000D02*
X85075000Y-25220000D01*
X87305000Y-25220000D02*
X86375000Y-25220000D01*
X49205000Y-25220000D02*
X49205000Y-23760000D01*
X46045000Y-25220000D02*
X46045000Y-23060000D01*
X46045000Y-25220000D02*
X46975000Y-25220000D01*
X49205000Y-25220000D02*
X48275000Y-25220000D01*
X11105000Y-25235000D02*
X11105000Y-23775000D01*
X7945000Y-25235000D02*
X7945000Y-23075000D01*
X7945000Y-25235000D02*
X8875000Y-25235000D01*
X11105000Y-25235000D02*
X10175000Y-25235000D01*
X163505000Y827500D02*
X163505000Y2287500D01*
X160345000Y827500D02*
X160345000Y2987500D01*
X160345000Y827500D02*
X161275000Y827500D01*
X163505000Y827500D02*
X162575000Y827500D01*
X87305000Y-9285000D02*
X87305000Y-7825000D01*
X84145000Y-9285000D02*
X84145000Y-7125000D01*
X84145000Y-9285000D02*
X85075000Y-9285000D01*
X87305000Y-9285000D02*
X86375000Y-9285000D01*
X49205000Y-9285000D02*
X49205000Y-7825000D01*
X46045000Y-9285000D02*
X46045000Y-7125000D01*
X46045000Y-9285000D02*
X46975000Y-9285000D01*
X49205000Y-9285000D02*
X48275000Y-9285000D01*
X11105000Y-9285000D02*
X11105000Y-7825000D01*
X7945000Y-9285000D02*
X7945000Y-7125000D01*
X7945000Y-9285000D02*
X8875000Y-9285000D01*
X11105000Y-9285000D02*
X10175000Y-9285000D01*
X145360000Y-4200000D02*
X145360000Y-6650000D01*
X142140000Y-6000000D02*
X142140000Y-4200000D01*
X135250000Y-5240000D02*
X137700000Y-5240000D01*
X137050000Y-8460000D02*
X135250000Y-8460000D01*
X163253922Y-41358750D02*
X163771078Y-41358750D01*
X163253922Y-42778750D02*
X163771078Y-42778750D01*
X153340000Y-6741422D02*
X153340000Y-7258578D01*
X151920000Y-6741422D02*
X151920000Y-7258578D01*
X149720000Y-7258578D02*
X149720000Y-6741422D01*
X151140000Y-7258578D02*
X151140000Y-6741422D01*
X143790000Y-258578D02*
X143790000Y258578D01*
X145210000Y-258578D02*
X145210000Y258578D01*
X119241422Y-5540000D02*
X119758578Y-5540000D01*
X119241422Y-6960000D02*
X119758578Y-6960000D01*
X147758578Y-4210000D02*
X147241422Y-4210000D01*
X147758578Y-2790000D02*
X147241422Y-2790000D01*
X128435000Y-6941422D02*
X128435000Y-7458578D01*
X127015000Y-6941422D02*
X127015000Y-7458578D01*
X119758578Y-4710000D02*
X119241422Y-4710000D01*
X119758578Y-3290000D02*
X119241422Y-3290000D01*
X139240000Y-6530000D02*
X140700000Y-6530000D01*
X139240000Y-3370000D02*
X141400000Y-3370000D01*
X139240000Y-3370000D02*
X139240000Y-4300000D01*
X139240000Y-6530000D02*
X139240000Y-5600000D01*
X126927064Y-4910000D02*
X125722936Y-4910000D01*
X126927064Y-3090000D02*
X125722936Y-3090000D01*
X161827500Y-38727500D02*
X164512500Y-38727500D01*
X161827500Y-40647500D02*
X161827500Y-38727500D01*
X164512500Y-40647500D02*
X161827500Y-40647500D01*
X126300000Y-10162500D02*
X126300000Y-6262500D01*
X124300000Y-10162500D02*
X124300000Y-6262500D01*
X126300000Y-10162500D02*
X124300000Y-10162500D01*
X126010000Y-11991422D02*
X126010000Y-12508578D01*
X124590000Y-11991422D02*
X124590000Y-12508578D01*
X149558578Y-34785000D02*
X149041422Y-34785000D01*
X149558578Y-33365000D02*
X149041422Y-33365000D01*
X148940000Y-6741422D02*
X148940000Y-7258578D01*
X147520000Y-6741422D02*
X147520000Y-7258578D01*
D12*
X143257142Y166666D02*
X143304761Y214285D01*
X143352380Y357142D01*
X143352380Y452380D01*
X143304761Y595238D01*
X143209523Y690476D01*
X143114285Y738095D01*
X142923809Y785714D01*
X142780952Y785714D01*
X142590476Y738095D01*
X142495238Y690476D01*
X142400000Y595238D01*
X142352380Y452380D01*
X142352380Y357142D01*
X142400000Y214285D01*
X142447619Y166666D01*
X142685714Y-690476D02*
X143352380Y-690476D01*
X142304761Y-452380D02*
X143019047Y-214285D01*
X143019047Y-833333D01*
M02*
