G04 #@! TF.GenerationSoftware,KiCad,Pcbnew,(5.1.4-0)*
G04 #@! TF.CreationDate,2021-05-12T17:49:12+10:00*
G04 #@! TF.ProjectId,ble,626c652e-6b69-4636-9164-5f7063625858,rev?*
G04 #@! TF.SameCoordinates,Original*
G04 #@! TF.FileFunction,Profile,NP*
%FSLAX46Y46*%
G04 Gerber Fmt 4.6, Leading zero omitted, Abs format (unit mm)*
G04 Created by KiCad (PCBNEW (5.1.4-0)) date 2021-05-12 17:49:12*
%MOMM*%
%LPD*%
G04 APERTURE LIST*
%ADD10C,0.050000*%
%ADD11C,0.100000*%
G04 APERTURE END LIST*
D10*
X1666666Y0D02*
G75*
G03X1666666Y0I-1666666J0D01*
G01*
X-2500000Y0D02*
X2500000Y0D01*
X0Y2500000D02*
X0Y-2500000D01*
D11*
X-8150000Y-43140000D02*
X-8150200Y5330000D01*
D10*
X179560200Y5349800D02*
G75*
G03X177310000Y7600000I-2250200J0D01*
G01*
X117980000Y7580000D02*
X32738800Y7527010D01*
X163160000Y-66210000D02*
X151810000Y-66200000D01*
X19810000Y-66147010D02*
X8240000Y-66170000D01*
X151810002Y-66200000D02*
G75*
G03X143470220Y-66157010I-4170002J0D01*
G01*
X6230000Y-64160000D02*
G75*
G03X8240000Y-66170000I2010000J0D01*
G01*
X167180000Y-45150000D02*
X177540000Y-45150000D01*
X177540000Y-45150000D02*
G75*
G03X179550000Y-43140000I0J2010000D01*
G01*
X165170000Y-64200000D02*
X165170000Y-47160000D01*
X167180000Y-45150000D02*
G75*
G03X165170000Y-47160000I0J-2010000D01*
G01*
X163160000Y-66210000D02*
G75*
G03X165170000Y-64200000I0J2010000D01*
G01*
X-5900000Y7580200D02*
G75*
G03X-8150200Y5330000I0J-2250200D01*
G01*
X6230000Y-47160000D02*
G75*
G03X4220000Y-45150000I-2010000J0D01*
G01*
X138710000Y7600000D02*
G75*
G03X147049782Y7557010I4170002J0D01*
G01*
X-5900000Y7580200D02*
X24399018Y7570000D01*
X28149782Y-66190000D02*
G75*
G03X19810000Y-66147010I-4170002J0D01*
G01*
D11*
X179560200Y5349800D02*
X179550000Y-43140000D01*
D10*
X-8150000Y-43140000D02*
G75*
G03X-6140000Y-45150000I2010000J0D01*
G01*
X117980000Y7580000D02*
X117980000Y10240000D01*
X177310000Y7600000D02*
X147049780Y7557010D01*
D11*
X143470220Y-66157010D02*
X28149782Y-66190000D01*
D10*
X4220000Y-45150000D02*
X-6140000Y-45150000D01*
X117980000Y10240000D02*
X129070000Y10240000D01*
X24399018Y7570000D02*
G75*
G03X32738800Y7527010I4170002J0D01*
G01*
X6230000Y-64160000D02*
X6230000Y-47160000D01*
X129070000Y10240000D02*
X129070000Y7580000D01*
X129070000Y7580000D02*
X138710000Y7600000D01*
M02*
