M48
; DRILL file {KiCad (5.1.4-0)} date 2021 May 12, Wednesday 17:49:17
; FORMAT={-:-/ absolute / inch / decimal}
; #@! TF.CreationDate,2021-05-12T17:49:17+10:00
; #@! TF.GenerationSoftware,Kicad,Pcbnew,(5.1.4-0)
; #@! TF.FileFunction,NonPlated,1,2,NPTH
FMAT,2
INCH
T1C0.0256
T2C0.0354
T3C0.0689
T4C0.1200
T5C0.1570
%
G90
G05
T1
X4.7512Y0.2134
X4.9787Y0.2134
T2
X6.948Y-0.2165
X6.948Y-0.3346
T3
X-0.2Y-0.75
X0.2Y-0.75
X-0.2Y-1.5
X0.2Y-1.5
X0.2687Y-2.25
X0.6687Y-2.25
X5.8Y-0.75
X6.2Y-0.75
X3.175Y-2.25
X3.575Y-2.25
X0.3625Y-2.25
X0.7625Y-2.25
X2.8Y-0.75
X3.2Y-0.75
X2.8Y0.0
X2.8Y-1.5
X3.2Y0.0
X6.55Y-0.75
X6.95Y-0.75
X6.0812Y-2.25
X6.4813Y-2.25
X0.55Y-0.75
X0.95Y-0.75
X1.3Y-1.5
X1.7Y-1.5
X1.3Y0.0
X2.45Y-1.5
X1.1125Y-2.25
X1.5125Y-2.25
X4.4188Y-2.25
X2.45Y0.0
X4.0187Y-2.25
X2.05Y0.0
X1.7Y0.0
X1.3Y-0.75
X1.7Y-0.75
X3.2Y-1.5
X0.55Y-1.5
X0.95Y-1.5
X2.05Y-1.5
X6.55Y0.0
X-0.2Y0.0
X5.8Y-1.5
X6.2Y-1.5
X6.95Y0.0
X0.55Y0.0
X0.95Y0.0
X2.05Y-0.75
X2.45Y-0.75
X5.05Y-1.5
X6.95Y-1.5
X5.45Y-1.5
X5.05Y-0.75
X5.45Y-0.75
X6.55Y-1.5
X4.3Y0.0
X4.7Y0.0
X0.2Y0.0
X5.2375Y-2.25
X2.425Y-2.25
X5.6375Y-2.25
X4.3Y-0.75
X4.7Y-0.75
X5.9875Y-2.25
X5.05Y0.0
X5.45Y0.0
X5.8Y0.0
X2.825Y-2.25
X4.3Y-1.5
X4.7Y-1.5
X6.3875Y-2.25
X6.2Y0.0
X3.55Y-0.75
X3.95Y-0.75
X3.55Y0.0
X3.95Y0.0
X3.55Y-1.5
X3.95Y-1.5
T4
X3.75Y-2.525
X4.6875Y-2.525
X2.1562Y-2.525
X3.0938Y-2.525
X1.4065Y-2.525
X5.3435Y-2.525
T5
X2.1562Y-1.925
X3.0938Y-1.925
X4.5Y-1.5
X4.5Y-0.75
X5.4375Y-2.25
X2.625Y-2.25
X3.75Y-0.75
X3.75Y0.0
X5.25Y0.0
X6.0Y0.0
X6.1875Y-2.25
X3.75Y-1.5
X3.0Y-1.5
X3.0Y-0.75
X3.0Y0.0
X6.75Y-0.75
X1.4065Y-1.925
X3.375Y-2.25
X5.3435Y-1.925
X0.5625Y-2.25
X6.2812Y-2.25
X3.75Y-1.925
X6.0Y-0.75
X0.75Y-0.75
X0.0Y-0.75
X0.75Y-1.5
X0.0Y-1.5
X1.3125Y-2.25
X4.6875Y-1.925
X2.25Y0.0
X4.2188Y-2.25
X0.4688Y-2.25
X1.5Y0.0
X1.5Y-0.75
X1.5Y-1.5
X2.25Y-1.5
X6.75Y0.0
X4.5Y0.0
X0.75Y0.0
X6.75Y-1.5
X2.25Y-0.75
X0.0Y0.0
X6.0Y-1.5
X5.25Y-0.75
X5.25Y-1.5
T0
M30
