M48
; DRILL file {KiCad (5.1.4-0)} date 2021 May 12, Wednesday 17:49:17
; FORMAT={-:-/ absolute / inch / decimal}
; #@! TF.CreationDate,2021-05-12T17:49:17+10:00
; #@! TF.GenerationSoftware,Kicad,Pcbnew,(5.1.4-0)
; #@! TF.FileFunction,Plated,1,2,PTH
FMAT,2
INCH
T1C0.0157
T2C0.0236
T3C0.0295
T4C0.0394
T5C0.0579
T6C0.0610
%
G90
G05
T1
X4.4094Y-0.3543
X4.5472Y0.0984
X4.6457Y0.1299
X4.6929Y-0.0787
X4.7165Y-0.3248
X4.789Y0.0591
X4.8031Y-0.1181
X4.8376Y-0.8435
X4.8661Y0.0512
X4.875Y0.2812
X4.9124Y-0.8812
X4.9299Y0.0638
X4.9764Y-1.0024
X4.9931Y0.0512
X5.0236Y-0.0945
X5.0315Y0.127
X5.1299Y-0.2244
X5.2559Y-0.2992
X5.315Y-0.3583
X5.3937Y-0.1575
X5.5787Y-1.0384
X5.5787Y-1.6378
X5.6211Y-1.2116
X5.625Y-0.875
X5.625Y-1.1309
X5.6626Y-1.8744
X5.6693Y-1.7717
X5.7087Y-0.7087
X5.7087Y-1.0827
X5.7677Y-1.2116
X5.7874Y-1.3386
X5.8661Y-1.9734
X5.8701Y-1.4449
X5.9016Y-0.8661
X5.9449Y-0.1378
X5.9449Y-0.9843
X6.0625Y-1.7188
X6.1024Y-0.313
X6.1201Y-1.2795
X6.2598Y-0.2362
X6.2625Y-0.0913
X6.375Y-1.875
X6.4685Y-1.0433
X6.4961Y-1.4567
X6.5354Y-1.6563
X6.6339Y-1.4921
X6.7126Y-0.187
X6.1976Y-0.9577
X6.1976Y-1.2923
X6.2409Y-0.9577
X6.2409Y-1.2923
X6.2842Y-0.9577
X6.2842Y-1.2923
X6.3275Y-0.9577
X6.3275Y-1.2923
X6.3708Y-0.9577
X6.3708Y-1.2923
X6.4141Y-0.9577
X6.4141Y-1.2923
X6.4574Y-0.9577
X6.4574Y-1.2923
X6.5007Y-0.9577
X6.5007Y-1.2923
X6.544Y-0.9577
X6.544Y-1.2923
T3
X5.5863Y-0.375
X5.665Y-0.375
T4
X6.225Y-1.125
X6.325Y-1.125
X6.425Y-1.125
X6.525Y-1.125
T5
X4.0687Y-2.15
X5.85Y0.1
X6.1Y0.2
X2.475Y-2.15
X2.725Y-2.05
X4.35Y-1.4
X4.6Y-1.3
X5.2875Y-2.15
X5.5375Y-2.05
X4.35Y-0.65
X4.6Y-0.55
X6.0375Y-2.15
X6.2875Y-2.05
X3.6Y-0.65
X3.85Y-0.55
X5.1Y0.1
X5.35Y0.2
X3.6Y0.1
X3.1Y0.2
X6.85Y-0.55
X3.225Y-2.15
X3.475Y-2.05
X0.4125Y-2.15
X0.6625Y-2.05
X3.85Y0.2
X2.85Y0.1
X2.85Y-1.4
X3.1Y-1.3
X3.1Y-0.55
X6.1312Y-2.15
X6.3812Y-2.05
X3.6Y-1.4
X3.85Y-1.3
X2.85Y-0.65
X6.6Y-0.65
X4.3187Y-2.05
X1.1625Y-2.15
X1.4125Y-2.05
X0.6Y-1.4
X0.85Y-1.3
X0.6Y-0.65
X0.85Y-0.55
X2.1Y0.1
X2.35Y0.2
X0.3187Y-2.15
X0.5687Y-2.05
X1.35Y0.1
X1.6Y0.2
X1.35Y-0.65
X1.6Y-0.55
X1.35Y-1.4
X1.6Y-1.3
X2.1Y-1.4
X2.35Y-1.3
X-0.15Y-1.4
X0.1Y-1.3
X-0.15Y-0.65
X0.1Y-0.55
X5.85Y-0.65
X6.1Y-0.55
X6.6Y0.1
X6.85Y0.2
X5.1Y-1.4
X5.35Y-1.3
X6.65Y-1.7
X6.9Y-1.6
X4.35Y0.1
X4.6Y0.2
X0.6Y0.1
X0.85Y0.2
X-0.15Y0.1
X0.1Y0.2
X5.9Y-1.7
X6.15Y-1.6
X2.1Y-0.65
X2.35Y-0.55
X5.1Y-0.65
X5.35Y-0.55
T6
X6.2411Y-0.375
X6.5167Y-0.375
T2
G00X4.6949Y0.3689
M15
G01X4.6949Y0.3453
M16
G05
G00X4.6949Y0.2142
M15
G01X4.6949Y0.1709
M16
G05
G00X5.035Y0.3689
M15
G01X5.035Y0.3453
M16
G05
G00X5.035Y0.2142
M15
G01X5.035Y0.1709
M16
G05
T0
M30
